# xmcd
#
# Track frame offsets:
#	150
#	15960
#	32489
#	44620
#	60093
#	74752
#	88378
#	103472
#	119656
#	134131
#	152470
#	171071
#	188073
#	204593
#	220718
#	232360
#	232809
#	233270
#	233727
#	234423
#	234982
#	235456
#	235930
#	236614
#	237183
#	237663
#	238114
#	238648
#	239409
#	239902
#	240396
#	241141
#	241632
#	242109
#	242643
#	243380
#	244061
#	244580
#	245171
#	245944
#	246415
#	246858
#	247351
#	248033
#	248571
#	249048
#	249514
#	250216
#	250700
#	251201
#	251725
#	252529
#	253132
#	253691
#	254258
#
# Disc length: 3398 seconds
#
# Revision: 1
# Processed by: cddbd v1.5.2PL0 Copyright (c) Steve Scherf et al.
# Submitted via: audiograbber 1.83.01
#
DISCID=160d4437
DTITLE=Various Artist - CDX Volume 620 (August 3, 2015)
DYEAR=2015
DGENRE=Country
TTITLE0=Jerrod Niemann - Blue Bandana 
TTITLE1=Kacey Musgraves - Dime Store Cowgirl
TTITLE2=Canaan Smith - Hole In A Bottle 
TTITLE3=William Michael Morgan - I Met A Girl
TTITLE4=David Nail - Night's On Fire 
TTITLE5=Jennifer Nettles - Sugar
TTITLE6=Kayla Adams - Burn A Little Colder
TTITLE7=Macy Martin - Baby What Ya Doing
TTITLE8=Dick Barnes - Born That Way
TTITLE9=Lynn Anderson - Drift Away Gospel
TTITLE10=Adam Searan - Last
TTITLE11=James Robert Webb - Makin' Love Tonight
TTITLE12=Homegrown Band - She Loves To Ride
TTITLE13=Donny Richmond - The World Keeps Loving Elvis
TTITLE14=Curtis Webb Project - Utility Man
TTITLE15=Josh Christina - Radio Liner - Home Town Country
TTITLE16=Josh Christina - Radio Liner - Kickin Country
TTITLE17=Josh Christina - Radio Liner - More of the Country You Love
TTITLE18=Josh Christina - Radio Liner - My New Single
TTITLE19=Josh Christina - Radio Liner - Super Country
TTITLE20=Josh Christina - Radio Liner - The Best In Country Music
TTITLE21=Josh Christina - Radio Liner - Today's Best Country
TTITLE22=Josh Christina - Radio Liner - Today's Hot Country Music
TTITLE23=Mary Fletcher - Radio Liner - Greatest Hits
TTITLE24=Mary Fletcher - Radio Liner - Home Town Country
TTITLE25=Mary Fletcher - Radio Liner - Kickin' Country
TTITLE26=Mary Fletcher - Radio Liner - More of the Country You Love
TTITLE27=Mary Fletcher - Radio Liner - My New Single
TTITLE28=Mary Fletcher - Radio Liner - The Best In Country Music
TTITLE29=Mary Fletcher - Radio Liner - Today's Best Country
TTITLE30=Mary Fletcher - Radio Liner - Today's Hot Country Music
TTITLE31=Lindsay Lawler - Radio Liner - Home Town Country
TTITLE32=Lindsay Lawler - Radio Liner - Kickin' Country
TTITLE33=Lindsay Lawler - Radio Liner - More of the Country You Love
TTITLE34=Lindsay Lawler - Radio Liner - My New Single
TTITLE35=Lindsay Lawler - Radio Liner - Super Country
TTITLE36=Lindsay Lawler - Radio Liner - The Best In Country Muisc
TTITLE37=Lindsay Lawler - Radio Liner - Today's Best Country
TTITLE38=Lindsay Lawler - Radio Liner - Today's Hot Country Music
TTITLE39=Emily Minor - Radio Liner - Home Town Country
TTITLE40=Emily Minor - Radio Liner - Kickin' Country
TTITLE41=Emily Minor - Radio Liner - More of the Country You Love
TTITLE42=Emily Minor - Radio Liner - My New Single
TTITLE43=Emily Minor - Radio Liner - Super Country
TTITLE44=Emily Minor - Radio Liner - The Best In Country Muisc
TTITLE45=Emily Minor - Radio Liner - Today's Best Country
TTITLE46=Emily Minor - Radio Liner - Today's Hot Country Music
TTITLE47=Michelle Wright - Radio Liner - Home Town Country
TTITLE48=Michelle Wright - Radio Liner - Kickin' Country
TTITLE49=Michelle Wright - Radio Liner - More of the Country You Love Next
TTITLE50=Michelle Wright - Radio Liner - My New Single
TTITLE51=Michelle Wright - Radio Liner - Super Country
TTITLE52=Michelle Wright - Radio Liner - The Best In Country
TTITLE53=Michelle Wright - Radio Liner - Today's Best Country
TTITLE54=Michelle Wright - Radio Liner - Today's Hot Country
EXTD=
EXTT0=
EXTT1=
EXTT2=
EXTT3=
EXTT4=
EXTT5=
EXTT6=
EXTT7=
EXTT8=
EXTT9=
EXTT10=
EXTT11=
EXTT12=
EXTT13=
EXTT14=
EXTT15=
EXTT16=
EXTT17=
EXTT18=
EXTT19=
EXTT20=
EXTT21=
EXTT22=
EXTT23=
EXTT24=
EXTT25=
EXTT26=
EXTT27=
EXTT28=
EXTT29=
EXTT30=
EXTT31=
EXTT32=
EXTT33=
EXTT34=
EXTT35=
EXTT36=
EXTT37=
EXTT38=
EXTT39=
EXTT40=
EXTT41=
EXTT42=
EXTT43=
EXTT44=
EXTT45=
EXTT46=
EXTT47=
EXTT48=
EXTT49=
EXTT50=
EXTT51=
EXTT52=
EXTT53=
EXTT54=
PLAYORDER=
